<svg version="1.1" id="Layer_1" xmlns="http://www.w3.org/2000/svg" xmlns:xlink="http://www.w3.org/1999/xlink" x="0px"
    y="0px" width="150px" height="75.51px" viewBox="0 0 300 75.51" enable-background="new 0 0 300 75.51"
    xml:space="preserve">
    <g>
        <path fill="#E5322D"
            d="M94.313,2.543c-4.785,2.309-8.374,6.2-10.995,10.612C79.104,6.071,72.405,0.326,62.259,0.326   c-10.15,0-22.594,8.614-22.594,23.165c0,14.732,12.293,21.715,18.382,25.658c6.508,4.211,17.613,11.867,25.27,26.036   c7.66-14.168,18.763-21.825,25.273-26.036c4.574-2.965,12.655-7.647,16.387-16.047L94.313,2.543z M93.946,33.938V6.254   l27.684,27.683H93.946z" />
        <g>
            <path
                d="M0.458,59.164H3.89c1.088,0,2.344-1.507,2.344-2.511V20.24c0-1.004-1.256-2.427-2.344-2.427H0.458v-8.79h27.54v8.79    h-3.516c-1.088,0-2.26,1.423-2.26,2.427v36.413c0,1.005,1.172,2.511,2.26,2.511h3.516v8.455H0.458V59.164z" />
            <path
                d="M133.383,59.164h2.846c1.172,0,2.427-1.507,2.427-2.511V20.24c0-1.004-1.256-2.427-2.427-2.427h-2.846v-8.79h26.619    c15.654,0,24.192,5.525,24.192,18.583c0,12.724-9.041,18.499-24.778,18.499h-4.855v13.059h6.78v8.455h-27.958V59.164z     M159.166,37.484c7.031,0,8.873-4.018,8.873-9.626c0-5.525-1.842-9.459-8.873-9.459h-4.855v19.086H159.166z" />
            <path
                d="M189.3,59.164h2.846c1.172,0,2.427-1.507,2.427-2.511V20.24c0-1.004-1.255-2.427-2.427-2.427H189.3v-8.79h25.531    c20.843,0,31.725,9.041,31.725,28.963c0,19.588-11.049,29.633-32.144,29.633H189.3V59.164z M214.412,58.746    c10.547,0,15.737-6.278,15.737-20.341c0-13.979-5.106-20.007-15.737-20.007h-3.934v40.347H214.412z" />
            <path
                d="M251.912,59.164h2.846c1.172,0,2.427-1.507,2.427-2.511V20.24c0-1.004-1.255-2.427-2.427-2.427h-2.846v-8.79h47.63v18.081    h-9.375l-1.423-8.622H273.09v16.407h7.617l0.67-5.525H290v20.341h-8.622l-0.67-5.776h-7.617v15.235h6.781v8.455h-27.959V59.164z" />
        </g>
        <polygon fill="#FFFFFF" points="93.946,33.938 93.946,6.254 121.63,33.938  " />
    </g>
</svg>